<?xml version="1.0" encoding="utf-8"?>
<svg width="328" height="233" viewBox="0 0 328 233" fill="none" xmlns="http://www.w3.org/2000/svg">
<g clip-path="url(#clip0_1570_539)">
<rect opacity="0.5" width="299" height="200" rx="10" transform="matrix(1 0 0 -1 16 221)" fill="url(#paint0_linear_1570_539)"/>
<g filter="url(#filter0_d_1570_539)">
<rect x="66" y="12" width="231" height="167" rx="7" fill="white"/>
<rect x="66.431" y="12.431" width="230.138" height="166.138" rx="6.569" stroke="#C4C1E4" stroke-width="0.862003"/>
</g>
<rect x="116" y="28" width="143" height="150" fill="#F1F1F1"/>
<path d="M137 45C137 41.6863 139.686 39 143 39H231C234.314 39 237 41.6863 237 45V178H137V45Z" fill="white"/>
<path d="M179.594 92H153.406C151.525 92 150 93.5081 150 95.3684V116.632C150 118.492 151.525 120 153.406 120H179.594C181.475 120 183 118.492 183 116.632V95.3684C183 93.5081 181.475 92 179.594 92Z" fill="#F2F2F2"/>
<path d="M179.594 136H153.406C151.525 136 150 137.508 150 139.368V160.632C150 162.492 151.525 164 153.406 164H179.594C181.475 164 183 162.492 183 160.632V139.368C183 137.508 181.475 136 179.594 136Z" fill="#F2F2F2"/>
<path d="M218.594 92H192.406C190.525 92 189 93.562 189 95.4887V117.511C189 119.438 190.525 121 192.406 121H218.594C220.475 121 222 119.438 222 117.511V95.4887C222 93.562 220.475 92 218.594 92Z" fill="#F2F2F2"/>
<path d="M218.594 136H192.406C190.525 136 189 137.508 189 139.368V160.632C189 162.492 190.525 164 192.406 164H218.594C220.475 164 222 162.492 222 160.632V139.368C222 137.508 220.475 136 218.594 136Z" fill="#F2F2F2"/>
<path d="M178 152.536C174.37 153.238 170.947 154.763 167.991 156.993C167.841 156.593 167.559 156.256 167.193 156.04C166.942 155.884 166.669 155.768 166.383 155.698C166.122 155.631 165.872 155.79 165.642 156.02C165.378 156.314 165.156 156.644 164.984 157C161.017 154.262 155 152.515 155 152.515V151.967C155.005 151.838 155.018 151.71 155.039 151.582C155.06 151.435 155.085 151.305 155.117 151.146C155.628 148.535 157.646 142.568 157.646 142.568H159.928L164.352 143.492L169.33 143.186L174.343 142.137L174.993 142C176.077 142.856 177.307 148.845 177.791 151.394C177.852 151.718 177.9 151.985 177.935 152.181C177.978 152.404 178 152.536 178 152.536Z" fill="white"/>
<path d="M202.888 141.047C202.888 141.047 201.857 141.315 200.257 145.83C198.658 150.344 198.092 156.176 198.092 156.176C198.092 156.176 197.192 157.763 201.031 157.869C201.031 157.869 200.722 158.917 202.888 158.756C205.054 158.596 204.742 158.597 204.742 158.597C204.742 158.597 206.134 157.683 206.753 157.844C207.372 158.005 207.759 158.06 208.429 158.65C209.099 159.241 211.241 159 211.266 158.544C211.283 158.32 211.283 158.095 211.266 157.871C211.266 157.871 214.541 158.086 213.922 155.614C213.303 153.141 212.788 149.083 212.788 149.083C212.788 149.083 211.112 141.156 209.202 141.048C207.293 140.941 202.888 141.047 202.888 141.047Z" fill="white"/>
<path d="M161.187 114C161.183 114 161.179 114 161.174 114L158.537 113.905C158.455 113.902 158.376 113.871 158.316 113.816C158.256 113.762 158.218 113.688 158.209 113.608C158.027 112.031 157.28 103.992 160.41 100.65C160.852 100.168 161.4 99.7875 162.013 99.5369C162.625 99.2862 163.287 99.1715 163.951 99.2011C163.978 99.2028 164.005 99.1972 164.029 99.1851C164.053 99.1729 164.073 99.1546 164.087 99.1321L164.725 98.1548C164.76 98.1018 164.81 98.0595 164.868 98.0325C164.927 98.0055 164.992 97.995 165.056 98.0022C165.568 98.0624 168.177 98.3469 169.274 98.0374C169.338 98.0188 169.407 98.0192 169.472 98.0386C169.536 98.0579 169.593 98.0953 169.636 98.1461L170.475 99.1442C170.489 99.1623 170.508 99.1767 170.529 99.1863C170.55 99.1959 170.573 99.2004 170.597 99.1994C171.023 99.1911 172.518 99.2715 173.827 100.697C175.244 102.241 176.706 105.724 175.626 113.55C175.614 113.631 175.574 113.705 175.511 113.758C175.448 113.811 175.368 113.841 175.285 113.841H173.208C173.125 113.841 173.046 113.812 172.983 113.759C172.921 113.707 172.88 113.634 172.868 113.555L172.189 108.994C172.184 108.957 172.164 108.923 172.134 108.899C172.104 108.875 172.065 108.863 172.027 108.865C171.988 108.868 171.951 108.884 171.924 108.911C171.897 108.939 171.882 108.975 171.881 109.013L171.834 111.154C171.833 111.217 171.813 111.279 171.777 111.332C171.741 111.385 171.69 111.427 171.63 111.453C170.89 111.77 166.978 113.257 162.653 111.394C162.595 111.369 162.545 111.328 162.509 111.276C162.473 111.224 162.452 111.164 162.449 111.102L162.364 109.156C162.363 109.118 162.346 109.082 162.319 109.055C162.291 109.029 162.254 109.013 162.215 109.012C162.176 109.01 162.138 109.023 162.108 109.048C162.079 109.073 162.06 109.108 162.056 109.146L161.528 113.703C161.519 113.784 161.478 113.86 161.416 113.915C161.353 113.969 161.271 114 161.187 114V114Z" fill="#20C58B"/>
<path d="M211.033 113H211.031L200.783 112.936C200.708 112.936 200.636 112.908 200.581 112.859C200.525 112.811 200.49 112.743 200.481 112.671L199.45 104.048C199.444 103.992 199.417 103.94 199.375 103.902C199.334 103.864 199.279 103.843 199.222 103.841C198.409 103.815 196.473 103.632 196.072 102.505C195.715 101.501 196.692 100.02 198.976 98.1025C199.015 98.0698 199.062 98.0471 199.112 98.0367C199.162 98.0263 199.213 98.0283 199.262 98.0427C199.311 98.0571 199.356 98.0833 199.392 98.119C199.428 98.1547 199.455 98.1987 199.469 98.247L200.655 102.273C200.669 102.321 200.699 102.364 200.74 102.394C200.781 102.425 200.83 102.441 200.881 102.442L210.599 102.506C210.65 102.507 210.7 102.491 210.741 102.461C210.782 102.432 210.812 102.39 210.827 102.342L212.147 98.2108C212.161 98.1646 212.187 98.1227 212.222 98.0885C212.257 98.0542 212.299 98.0287 212.346 98.0141C212.393 97.9995 212.442 97.9962 212.491 98.0045C212.539 98.0128 212.585 98.0324 212.624 98.0617C213.524 98.7384 216.425 101.062 215.947 102.548C215.697 103.326 214.569 103.76 212.595 103.837C212.539 103.839 212.484 103.861 212.443 103.899C212.401 103.936 212.375 103.988 212.368 104.043L211.337 112.734C211.328 112.807 211.293 112.875 211.237 112.924C211.181 112.973 211.108 113 211.033 113V113Z" fill="#20C58B"/>
<rect x="150" y="79" width="50" height="4" rx="2" fill="#C8C6D9"/>
<rect x="203" y="52" width="25" height="4" rx="2" fill="#C8C6D9"/>
<path d="M167 50H153C151.895 50 151 50.8954 151 52V66C151 67.1046 151.895 68 153 68H167C168.105 68 169 67.1046 169 66V52C169 50.8954 168.105 50 167 50Z" stroke="#C8C6D9" stroke-width="2" stroke-linecap="round" stroke-linejoin="round"/>
<path d="M156.5 57C157.328 57 158 56.3284 158 55.5C158 54.6716 157.328 54 156.5 54C155.672 54 155 54.6716 155 55.5C155 56.3284 155.672 57 156.5 57Z" stroke="#C8C6D9" stroke-width="2" stroke-linecap="round" stroke-linejoin="round"/>
<path d="M169 62L164 57L153 68" stroke="#C8C6D9" stroke-width="2" stroke-linecap="round" stroke-linejoin="round"/>
<line x1="67" y1="27.569" x2="297" y2="27.569" stroke="#C4C1E4" stroke-width="0.862003"/>
<line x1="115.569" y1="179" x2="115.569" y2="28" stroke="#C4C1E4" stroke-width="0.862003"/>
<line x1="258.569" y1="179" x2="258.569" y2="28" stroke="#C4C1E4" stroke-width="0.862003"/>
<circle cx="275" cy="21" r="2" fill="#C4C1E4"/>
<circle cx="281" cy="21" r="2" fill="#C4C1E4"/>
<circle cx="287" cy="21" r="2" fill="#C4C1E4"/>
<rect x="76" y="19" width="15" height="4" rx="2" fill="#C8C6D9"/>
<g filter="url(#filter1_d_1570_539)">
<rect x="39" y="34" width="84" height="129" rx="7" fill="white"/>
<rect x="39.431" y="34.431" width="83.138" height="128.138" rx="6.569" stroke="#C4C1E4" stroke-width="0.862003"/>
</g>
<path d="M102.399 93.7064H60.7556C59.2297 93.7047 57.7667 93.0977 56.6877 92.0187C55.6087 90.9397 55.0017 89.4768 55 87.9508V53.7556C55.0017 52.2297 55.6087 50.7667 56.6877 49.6877C57.7667 48.6087 59.2297 48.0017 60.7556 48H102.399C103.925 48.0017 105.388 48.6087 106.467 49.6877C107.546 50.7667 108.153 52.2297 108.155 53.7556V87.9508C108.153 89.4768 107.546 90.9397 106.467 92.0187C105.388 93.0977 103.925 93.7047 102.399 93.7064V93.7064ZM60.7556 48.6771C59.4092 48.6787 58.1183 49.2142 57.1663 50.1663C56.2142 51.1183 55.6787 52.4092 55.6771 53.7556V87.9508C55.6787 89.2972 56.2142 90.5881 57.1663 91.5401C58.1183 92.4922 59.4092 93.0278 60.7556 93.0293H102.399C103.746 93.0278 105.037 92.4922 105.989 91.5401C106.941 90.5881 107.476 89.2972 107.478 87.9508V53.7556C107.476 52.4092 106.941 51.1183 105.989 50.1663C105.037 49.2142 103.746 48.6787 102.399 48.6771H60.7556Z" fill="#3F3D56"/>
<path d="M102.399 149.357H60.7556C59.2297 149.355 57.7667 148.748 56.6877 147.669C55.6087 146.59 55.0017 145.127 55 143.601V109.406C55.0017 107.88 55.6087 106.417 56.6877 105.338C57.7667 104.259 59.2297 103.652 60.7556 103.65H102.399C103.925 103.652 105.388 104.259 106.467 105.338C107.546 106.417 108.153 107.88 108.155 109.406V143.601C108.153 145.127 107.546 146.59 106.467 147.669C105.388 148.748 103.925 149.355 102.399 149.357V149.357ZM60.7556 104.328C59.4092 104.329 58.1183 104.865 57.1663 105.817C56.2142 106.769 55.6787 108.06 55.6771 109.406V143.601C55.6787 144.948 56.2142 146.238 57.1663 147.191C58.1183 148.143 59.4092 148.678 60.7556 148.68H102.399C103.746 148.678 105.037 148.143 105.989 147.191C106.941 146.238 107.476 144.948 107.478 143.601V109.406C107.476 108.06 106.941 106.769 105.989 105.817C105.037 104.865 103.746 104.329 102.399 104.328H60.7556Z" fill="#3F3D56"/>
<path d="M71.2144 85.4358C71.2069 85.4358 71.1993 85.4357 71.1918 85.4353L66.4552 85.2599C66.3075 85.2555 66.1664 85.1977 66.058 85.0974C65.9496 84.997 65.8811 84.8608 65.8652 84.7139C65.5392 81.8052 64.1976 66.9828 69.818 60.8222C70.6135 59.9326 71.597 59.2313 72.6972 58.7692C73.7975 58.307 74.9868 58.0956 76.1789 58.1502C76.2273 58.1532 76.2757 58.143 76.3187 58.1206C76.3617 58.0981 76.3978 58.0643 76.423 58.0229L77.5697 56.2209C77.6324 56.1233 77.7213 56.0452 77.8262 55.9955C77.9311 55.9458 78.0478 55.9264 78.1631 55.9396C79.0824 56.0507 83.7685 56.5751 85.739 56.0045C85.8552 55.9703 85.979 55.971 86.0948 56.0066C86.2106 56.0423 86.3133 56.1112 86.3902 56.2049L87.8959 58.0452C87.9218 58.0785 87.9552 58.1051 87.9935 58.1228C88.0317 58.1405 88.0736 58.1488 88.1157 58.147C88.8816 58.1317 91.5669 58.2799 93.9171 60.9086C96.4619 63.755 99.0883 70.1772 97.1481 84.6069C97.1279 84.7551 97.0547 84.8911 96.9422 84.9896C96.8296 85.0882 96.6853 85.1428 96.5357 85.1434H92.8052C92.6571 85.1427 92.5141 85.0891 92.4021 84.9922C92.2901 84.8953 92.2165 84.7615 92.1946 84.615L90.976 76.2064C90.9659 76.1373 90.9303 76.0745 90.8761 76.0304C90.8219 75.9863 90.7531 75.9642 90.6834 75.9685C90.6137 75.9728 90.5481 76.0032 90.4998 76.0535C90.4514 76.1039 90.4237 76.1706 90.4222 76.2405L90.3382 80.1884C90.3356 80.3055 90.2998 80.4195 90.2349 80.517C90.17 80.6145 90.0787 80.6916 89.9717 80.7392C88.6417 81.3239 81.6149 84.0663 73.8484 80.6316C73.7433 80.5844 73.6534 80.5089 73.5887 80.4137C73.524 80.3184 73.487 80.207 73.4818 80.092L73.3291 76.505C73.3261 76.4349 73.2968 76.3686 73.2471 76.3192C73.1973 76.2699 73.1307 76.2411 73.0607 76.2387C72.9906 76.2362 72.9223 76.2603 72.8692 76.3061C72.8161 76.3519 72.7822 76.416 72.7744 76.4856L71.8276 84.888C71.81 85.0384 71.7379 85.1773 71.6249 85.2782C71.5119 85.3791 71.3659 85.4352 71.2144 85.4358V85.4358Z" fill="#20C58B"/>
<path d="M90.8094 139.382H90.8059L72.2452 139.265C72.1103 139.264 71.9803 139.213 71.8798 139.123C71.7792 139.033 71.7149 138.91 71.699 138.776L69.8319 122.906C69.8206 122.804 69.7726 122.709 69.6968 122.639C69.6211 122.569 69.5226 122.529 69.4197 122.526C67.9461 122.478 64.4405 122.142 63.714 120.067C63.067 118.219 64.8367 115.493 68.9738 111.965C69.0441 111.905 69.1284 111.863 69.219 111.844C69.3096 111.825 69.4036 111.828 69.4923 111.855C69.5811 111.881 69.6618 111.93 69.7271 111.995C69.7924 112.061 69.8402 112.142 69.8661 112.231L72.0137 119.64C72.04 119.729 72.094 119.808 72.1679 119.863C72.2418 119.919 72.3317 119.95 72.4244 119.951L90.0227 120.069C90.1149 120.07 90.2049 120.041 90.2795 119.987C90.354 119.933 90.409 119.856 90.4363 119.768L92.826 112.164C92.8526 112.079 92.8992 112.002 92.962 111.939C93.0247 111.876 93.1017 111.829 93.1865 111.802C93.2712 111.775 93.3612 111.769 93.4488 111.785C93.5364 111.8 93.6191 111.836 93.6897 111.89C95.3203 113.135 100.573 117.411 99.7088 120.146C99.2559 121.578 97.2135 122.376 93.6382 122.518C93.5355 122.522 93.4375 122.562 93.3621 122.632C93.2867 122.702 93.2388 122.796 93.2272 122.898L91.3592 138.893C91.3437 139.028 91.279 139.152 91.1776 139.242C91.0762 139.332 90.9451 139.382 90.8094 139.382V139.382Z" fill="#20C58B"/>
<rect x="152" y="123" width="20" height="2" rx="1" fill="#C8C6D9"/>
<rect x="192" y="123" width="20" height="2" rx="1" fill="#C8C6D9"/>
<rect x="152" y="127" width="10" height="2" rx="1" fill="#C8C6D9"/>
<rect x="192" y="127" width="10" height="2" rx="1" fill="#C8C6D9"/>
<path d="M266.558 118.501C260.948 118.501 256.401 113.953 256.401 108.344C256.401 102.734 260.948 98.1868 266.558 98.1868C272.167 98.1868 276.715 102.734 276.715 108.344C276.715 113.953 272.167 118.501 266.558 118.501Z" fill="#2F2E41"/>
<path d="M265.706 118.52C261.113 118.52 257.39 114.797 257.39 110.204C257.39 105.612 261.113 101.889 265.706 101.889C270.298 101.889 274.021 105.612 274.021 110.204C274.021 114.797 270.298 118.52 265.706 118.52Z" fill="#FFB8B8"/>
<path d="M234.035 135.497C234.167 135.63 234.289 135.773 234.398 135.925L251.178 135.332L253.098 131.733L258.908 133.919L256.13 140.621C255.905 141.163 255.511 141.617 255.007 141.915C254.502 142.214 253.915 142.34 253.332 142.276L234.344 140.191C233.903 140.763 233.298 141.186 232.61 141.405C231.923 141.624 231.185 141.629 230.494 141.418C229.804 141.208 229.194 140.792 228.746 140.226C228.298 139.661 228.032 138.972 227.985 138.252C227.938 137.532 228.111 136.814 228.481 136.195C228.851 135.576 229.402 135.084 230.058 134.785C230.715 134.485 231.448 134.393 232.158 134.521C232.868 134.648 233.523 134.988 234.035 135.497H234.035Z" fill="#FFB8B8"/>
<path d="M261.143 137.156C261.357 137.06 261.548 136.919 261.702 136.742C261.856 136.566 261.971 136.359 262.038 136.134L264.375 128.29C264.883 127.203 264.939 125.96 264.531 124.833C264.123 123.705 263.285 122.785 262.2 122.275C261.115 121.764 259.872 121.705 258.743 122.109C257.615 122.514 256.692 123.349 256.179 124.433L251.652 131.284C251.522 131.479 251.437 131.7 251.401 131.932C251.365 132.163 251.379 132.4 251.443 132.626C251.506 132.851 251.618 133.06 251.77 133.239C251.921 133.417 252.11 133.561 252.322 133.66L259.785 137.146C259.997 137.245 260.229 137.297 260.463 137.299C260.697 137.301 260.929 137.252 261.143 137.156V137.156Z" fill="#F5CC62"/>
<path d="M244.617 216.797L240.971 214.812L246.891 199.806L252.271 202.735L244.617 216.797Z" fill="#FFB8B8"/>
<path d="M246.195 216.113L239.016 212.204L239.016 212.204C238.415 211.877 237.755 211.672 237.075 211.599C236.395 211.527 235.707 211.59 235.051 211.783C234.395 211.977 233.783 212.298 233.251 212.728C232.719 213.158 232.277 213.688 231.95 214.289L231.869 214.438L243.624 220.837L246.195 216.113Z" fill="#2F2E41"/>
<path d="M284.731 216.813H280.581L278.606 200.803L284.732 200.803L284.731 216.813Z" fill="#FFB8B8"/>
<path d="M285.791 215.458L277.617 215.458H277.616C276.932 215.458 276.255 215.592 275.623 215.854C274.991 216.116 274.417 216.5 273.933 216.983C273.449 217.467 273.065 218.041 272.804 218.674C272.542 219.306 272.407 219.983 272.407 220.667V220.836L285.791 220.837L285.791 215.458Z" fill="#2F2E41"/>
<path d="M258.939 145.755L257.585 162.006L242.478 207.325C242.419 207.504 242.397 207.692 242.415 207.879C242.432 208.066 242.488 208.248 242.58 208.412C242.671 208.576 242.795 208.719 242.945 208.833C243.095 208.946 243.267 209.027 243.449 209.071L248.079 210.173C248.376 210.244 248.687 210.212 248.964 210.084C249.24 209.956 249.465 209.738 249.602 209.466L268.916 171.156C268.978 171.031 269.079 170.929 269.202 170.863C269.325 170.797 269.466 170.771 269.605 170.789C269.744 170.806 269.874 170.866 269.977 170.961C270.08 171.055 270.152 171.179 270.182 171.316L278.681 210.034C278.747 210.336 278.914 210.606 279.155 210.799C279.395 210.993 279.695 211.098 280.004 211.098H284.311C284.49 211.099 284.668 211.063 284.833 210.994C284.999 210.925 285.149 210.823 285.275 210.696C285.401 210.568 285.5 210.416 285.567 210.25C285.634 210.083 285.667 209.905 285.664 209.726C285.269 182.879 286.571 152.287 276.206 147.448L274.513 143.047L258.939 145.755Z" fill="#2F2E41"/>
<path d="M275.002 144.199L276.748 133.643C277.037 131.912 276.885 130.137 276.307 128.479C275.729 126.822 274.744 125.337 273.441 124.162C272.167 122.997 270.621 122.172 268.945 121.762C267.268 121.352 265.516 121.371 263.849 121.817C263.75 121.844 263.651 121.871 263.552 121.899C261.5 122.486 259.679 123.689 258.333 125.345C256.987 127 256.182 129.029 256.026 131.157C255.693 135.741 255.991 142.392 259.303 148.041L259.367 148.151L275.002 144.199Z" fill="#F5CC62"/>
<path d="M257.432 105.785C259.332 107.094 261.588 107.791 263.895 107.782C263.072 108.353 262.135 108.739 261.148 108.912C264.217 109.571 267.388 109.588 270.464 108.965C271.147 108.855 271.807 108.628 272.414 108.295C272.716 108.126 272.98 107.895 273.187 107.618C273.394 107.341 273.541 107.023 273.617 106.685C273.822 105.518 272.912 104.457 271.967 103.742C270.519 102.664 268.85 101.922 267.08 101.568C265.311 101.214 263.484 101.258 261.734 101.697C260.591 101.993 259.445 102.492 258.703 103.41C257.961 104.328 257.741 105.743 258.448 106.688L257.432 105.785Z" fill="#2F2E41"/>
<path d="M266.692 98.1364C265.728 94.2444 269.183 89.9202 273.192 90.0011C277.259 90.0833 280.252 93.7587 282.31 97.2683C284.367 100.778 286.412 104.756 290.189 106.267C291.439 106.767 292.794 106.949 294.131 106.797C295.469 106.645 296.748 106.163 297.853 105.394C298.959 104.626 299.856 103.596 300.465 102.395C301.075 101.195 301.376 99.8618 301.344 98.5159C301.851 102.78 301.148 107.393 298.399 110.691C295.649 113.988 290.532 115.475 286.855 113.258C284.755 111.993 283.412 109.792 282.305 107.604C281.199 105.416 280.214 103.108 278.537 101.319C276.86 99.53 274.267 98.3425 271.933 99.0952C271.006 99.3941 270.175 99.9765 269.218 100.154C268.261 100.331 267.056 99.876 266.925 98.9114L266.692 98.1364Z" fill="#2F2E41"/>
<path d="M286.733 168.708C287.078 168.304 287.331 167.828 287.472 167.316C287.614 166.803 287.641 166.266 287.553 165.742C287.464 165.218 287.262 164.719 286.96 164.281C286.658 163.844 286.263 163.478 285.805 163.209L278.591 130.877L271.274 133.88L280.665 164.717C280.265 165.518 280.172 166.438 280.405 167.302C280.637 168.167 281.179 168.916 281.927 169.408C282.675 169.9 283.577 170.1 284.463 169.971C285.349 169.842 286.156 169.393 286.733 168.708H286.733Z" fill="#FFB8B8"/>
<path d="M281.45 135.515C281.565 135.311 281.635 135.084 281.654 134.851C281.674 134.617 281.643 134.382 281.564 134.162L278.79 126.461C278.554 125.285 277.861 124.251 276.864 123.586C275.866 122.92 274.646 122.677 273.47 122.91C272.293 123.143 271.258 123.833 270.589 124.828C269.921 125.824 269.674 127.044 269.904 128.221L270.326 136.421C270.338 136.655 270.4 136.884 270.508 137.092C270.617 137.3 270.769 137.482 270.954 137.625C271.139 137.769 271.353 137.871 271.581 137.925C271.809 137.979 272.046 137.983 272.276 137.936L280.351 136.313C280.58 136.267 280.798 136.172 280.987 136.034C281.177 135.896 281.335 135.719 281.45 135.515Z" fill="#F5CC62"/>
<path d="M222.35 131.889L222.47 131.873L222.017 128.581C221.948 128.076 222.082 127.563 222.39 127.157C222.698 126.75 223.156 126.483 223.661 126.414L230.635 125.455C231.14 125.385 231.653 125.52 232.059 125.828C232.465 126.136 232.733 126.593 232.802 127.098L235.285 145.158C235.354 145.663 235.22 146.175 234.912 146.581C234.604 146.988 234.147 147.255 233.641 147.325L226.667 148.283C226.162 148.353 225.65 148.219 225.243 147.911C224.837 147.602 224.569 147.145 224.5 146.64L222.792 134.216L222.672 134.232L222.35 131.889Z" fill="#3F3D56"/>
<path d="M223.881 127.379L224.749 127.26C224.723 127.363 224.722 127.472 224.747 127.575C224.773 127.679 224.823 127.775 224.894 127.855C224.965 127.934 225.055 127.995 225.155 128.032C225.255 128.069 225.363 128.081 225.468 128.066L229.279 127.542C229.385 127.528 229.486 127.487 229.572 127.425C229.659 127.362 229.728 127.28 229.775 127.184C229.822 127.088 229.845 126.982 229.841 126.875C229.838 126.769 229.808 126.664 229.754 126.572L230.565 126.461C230.744 126.436 230.925 126.447 231.099 126.492C231.273 126.538 231.436 126.617 231.58 126.726C231.723 126.835 231.844 126.971 231.934 127.126C232.025 127.281 232.085 127.453 232.109 127.631L234.474 144.832C234.498 145.01 234.487 145.191 234.442 145.365C234.396 145.539 234.317 145.703 234.208 145.846C234.099 145.989 233.963 146.11 233.808 146.201C233.653 146.292 233.481 146.351 233.303 146.375L226.619 147.294C226.259 147.344 225.894 147.248 225.604 147.029C225.315 146.809 225.124 146.484 225.075 146.124V146.124L222.71 128.923C222.661 128.563 222.756 128.198 222.976 127.909C223.195 127.619 223.521 127.429 223.881 127.379L223.881 127.379Z" fill="white"/>
<path d="M228.619 141.66C230.676 141.66 232.343 139.992 232.343 137.936C232.343 135.879 230.676 134.211 228.619 134.211C226.562 134.211 224.895 135.879 224.895 137.936C224.895 139.992 226.562 141.66 228.619 141.66Z" fill="#20C58B"/>
<path d="M228.249 139.356C228.166 139.356 228.084 139.329 228.017 139.279L228.013 139.276L227.138 138.606C227.097 138.575 227.063 138.536 227.037 138.492C227.011 138.448 226.995 138.399 226.988 138.348C226.981 138.297 226.984 138.246 226.997 138.196C227.011 138.147 227.033 138.101 227.065 138.06C227.096 138.019 227.134 137.985 227.179 137.96C227.223 137.934 227.272 137.918 227.323 137.911C227.373 137.904 227.425 137.908 227.474 137.921C227.524 137.934 227.57 137.957 227.611 137.989L228.178 138.423L229.517 136.676C229.548 136.636 229.587 136.602 229.631 136.576C229.675 136.551 229.724 136.534 229.775 136.527C229.826 136.521 229.877 136.524 229.926 136.537C229.976 136.55 230.022 136.573 230.062 136.604L230.054 136.616L230.063 136.604C230.144 136.667 230.198 136.76 230.211 136.862C230.225 136.964 230.197 137.068 230.135 137.15L228.559 139.205C228.522 139.252 228.475 139.29 228.422 139.317C228.368 139.343 228.309 139.356 228.249 139.356Z" fill="white"/>
<g filter="url(#filter2_d_1570_539)">
<rect x="256" y="1" width="66" height="66" rx="33" fill="white"/>
<rect x="256.431" y="1.431" width="65.138" height="65.138" rx="32.569" stroke="#C4C1E4" stroke-width="0.862003"/>
</g>
<path d="M285 46C285.552 46 286 45.5523 286 45C286 44.4477 285.552 44 285 44C284.448 44 284 44.4477 284 45C284 45.5523 284.448 46 285 46Z" stroke="#786AFF" stroke-width="2" stroke-linecap="round" stroke-linejoin="round"/>
<path d="M296 46C296.552 46 297 45.5523 297 45C297 44.4477 296.552 44 296 44C295.448 44 295 44.4477 295 45C295 45.5523 295.448 46 296 46Z" stroke="#786AFF" stroke-width="2" stroke-linecap="round" stroke-linejoin="round"/>
<path d="M277 25H281L283.68 38.39C283.771 38.8504 284.022 39.264 284.388 39.5583C284.753 39.8526 285.211 40.009 285.68 40H295.4C295.869 40.009 296.327 39.8526 296.692 39.5583C297.058 39.264 297.309 38.8504 297.4 38.39L299 30H282" stroke="#786AFF" stroke-width="2" stroke-linecap="round" stroke-linejoin="round"/>
<g filter="url(#filter3_d_1570_539)">
<rect x="133" y="145" width="50" height="50" rx="25" fill="white"/>
<rect x="133.431" y="145.431" width="49.138" height="49.138" rx="24.569" stroke="#C4C1E4" stroke-width="0.862003"/>
</g>
<path d="M162 179V177C162 175.939 161.579 174.922 160.828 174.172C160.078 173.421 159.061 173 158 173H151C149.939 173 148.922 173.421 148.172 174.172C147.421 174.922 147 175.939 147 177V179" stroke="#20C58B" stroke-width="2" stroke-linecap="round" stroke-linejoin="round"/>
<path d="M154.5 169C156.709 169 158.5 167.209 158.5 165C158.5 162.791 156.709 161 154.5 161C152.291 161 150.5 162.791 150.5 165C150.5 167.209 152.291 169 154.5 169Z" stroke="#20C58B" stroke-width="2" stroke-linecap="round" stroke-linejoin="round"/>
<path d="M166 166V172" stroke="#20C58B" stroke-width="2" stroke-linecap="round" stroke-linejoin="round"/>
<path d="M169 169H163" stroke="#20C58B" stroke-width="2" stroke-linecap="round" stroke-linejoin="round"/>
</g>
<defs>
<filter id="filter0_d_1570_539" x="60.17" y="9.45" width="242.66" height="178.66" filterUnits="userSpaceOnUse" color-interpolation-filters="sRGB">
<feFlood flood-opacity="0" result="BackgroundImageFix"/>
<feColorMatrix in="SourceAlpha" type="matrix" values="0 0 0 0 0 0 0 0 0 0 0 0 0 0 0 0 0 0 127 0" result="hardAlpha"/>
<feMorphology radius="1" operator="erode" in="SourceAlpha" result="effect1_dropShadow_1570_539"/>
<feOffset dy="3.28"/>
<feGaussianBlur stdDeviation="3.415"/>
<feColorMatrix type="matrix" values="0 0 0 0 0 0 0 0 0 0 0 0 0 0 0 0 0 0 0.0997 0"/>
<feBlend mode="normal" in2="BackgroundImageFix" result="effect1_dropShadow_1570_539"/>
<feBlend mode="normal" in="SourceGraphic" in2="effect1_dropShadow_1570_539" result="shape"/>
</filter>
<filter id="filter1_d_1570_539" x="33.17" y="31.45" width="95.66" height="140.66" filterUnits="userSpaceOnUse" color-interpolation-filters="sRGB">
<feFlood flood-opacity="0" result="BackgroundImageFix"/>
<feColorMatrix in="SourceAlpha" type="matrix" values="0 0 0 0 0 0 0 0 0 0 0 0 0 0 0 0 0 0 127 0" result="hardAlpha"/>
<feMorphology radius="1" operator="erode" in="SourceAlpha" result="effect1_dropShadow_1570_539"/>
<feOffset dy="3.28"/>
<feGaussianBlur stdDeviation="3.415"/>
<feColorMatrix type="matrix" values="0 0 0 0 0 0 0 0 0 0 0 0 0 0 0 0 0 0 0.0997 0"/>
<feBlend mode="normal" in2="BackgroundImageFix" result="effect1_dropShadow_1570_539"/>
<feBlend mode="normal" in="SourceGraphic" in2="effect1_dropShadow_1570_539" result="shape"/>
</filter>
<filter id="filter2_d_1570_539" x="250.17" y="-1.55" width="77.66" height="77.66" filterUnits="userSpaceOnUse" color-interpolation-filters="sRGB">
<feFlood flood-opacity="0" result="BackgroundImageFix"/>
<feColorMatrix in="SourceAlpha" type="matrix" values="0 0 0 0 0 0 0 0 0 0 0 0 0 0 0 0 0 0 127 0" result="hardAlpha"/>
<feMorphology radius="1" operator="erode" in="SourceAlpha" result="effect1_dropShadow_1570_539"/>
<feOffset dy="3.28"/>
<feGaussianBlur stdDeviation="3.415"/>
<feColorMatrix type="matrix" values="0 0 0 0 0 0 0 0 0 0 0 0 0 0 0 0 0 0 0.0997 0"/>
<feBlend mode="normal" in2="BackgroundImageFix" result="effect1_dropShadow_1570_539"/>
<feBlend mode="normal" in="SourceGraphic" in2="effect1_dropShadow_1570_539" result="shape"/>
</filter>
<filter id="filter3_d_1570_539" x="127.17" y="142.45" width="61.66" height="61.66" filterUnits="userSpaceOnUse" color-interpolation-filters="sRGB">
<feFlood flood-opacity="0" result="BackgroundImageFix"/>
<feColorMatrix in="SourceAlpha" type="matrix" values="0 0 0 0 0 0 0 0 0 0 0 0 0 0 0 0 0 0 127 0" result="hardAlpha"/>
<feMorphology radius="1" operator="erode" in="SourceAlpha" result="effect1_dropShadow_1570_539"/>
<feOffset dy="3.28"/>
<feGaussianBlur stdDeviation="3.415"/>
<feColorMatrix type="matrix" values="0 0 0 0 0 0 0 0 0 0 0 0 0 0 0 0 0 0 0.0997 0"/>
<feBlend mode="normal" in2="BackgroundImageFix" result="effect1_dropShadow_1570_539"/>
<feBlend mode="normal" in="SourceGraphic" in2="effect1_dropShadow_1570_539" result="shape"/>
</filter>
<linearGradient id="paint0_linear_1570_539" x1="149.5" y1="0" x2="149.5" y2="200" gradientUnits="userSpaceOnUse">
<stop stop-color="#DFDCFF"/>
<stop offset="1" stop-color="#DFDCFF" stop-opacity="0"/>
</linearGradient>
<clipPath id="clip0_1570_539">
<rect width="328" height="233" fill="white"/>
</clipPath>
</defs>
</svg>
